PathFileType	4	(X/Y/Z)	..\data\SUBJ01\static\static.trc
DataRate	CameraRate	NumFrames	NumMarkers	Units	OrigDataRate	OrigDataStartFrame	OrigNumFrames
100.000000	100.000000	4	33	mm	100.000000	0	82
Frame#	Time	LFHD			RFHD			LBHD			RBHD			C7			T10			CLAV			STRN			LSHO			LELB			LWRA			LWRB			LFIN			RSHO			RELB			RWRA			RWRB			RFIN			LASI			RASI			SACR			LTHI			LKNE			LTIB			LANK			LHEE			LTOE			RTHI			RKNE			RTIB			RANK			RHEE			RTOE			
		X1	Y1	Z1	X2	Y2	Z2	X3	Y3	Z3	X4	Y4	Z4	X5	Y5	Z5	X6	Y6	Z6	X7	Y7	Z7	X8	Y8	Z8	X9	Y9	Z9	X10	Y10	Z10	X11	Y11	Z11	X12	Y12	Z12	X13	Y13	Z13	X14	Y14	Z14	X15	Y15	Z15	X16	Y16	Z16	X17	Y17	Z17	X18	Y18	Z18	X19	Y19	Z19	X20	Y20	Z20	X21	Y21	Z21	X22	Y22	Z22	X23	Y23	Z23	X24	Y24	Z24	X25	Y25	Z25	X26	Y26	Z26	X27	Y27	Z27	X28	Y28	Z28	X29	Y29	Z29	X30	Y30	Z30	X31	Y31	Z31	X32	Y32	Z32	X33	Y33	Z33	

1	0	-130.7600555419922	1571.971069335938	-205.513900756836	-160.5067138671875	1541.001220703125	-87.65113067626955	-269.8038330078126	1481.123901367188	-247.4653930664063	-298.3069458007813	1456.000854492188	-120.0931930541992	-316.4130554199219	1368.941650390625	-175.0781707763672	-369.3304748535157	1144.277221679688	-182.7654571533203	-164.6819458007813	1277.192260742188	-184.080795288086	-97.4070739746094	1124.166381835938	-180.0756225585938	-240.0287322998047	1315.177734375	-351.5248107910157	-158.3979949951172	1089.706298828125	-508.6056213378907	-49.37083435058595	878.082702636719	-564.7733764648439	-48.51736450195314	912.0779418945315	-622.5965576171876	-19.78208351135254	809.1169433593752	-617.2022705078126	-230.8609466552735	1308.816284179688	-7.969264984130861	-201.9555664062501	1092.591186523438	176.7164459228516	-158.6490783691407	848.0397949218752	240.1423034667969	-157.6374053955078	896.9658203125002	304.0455017089844	-129.1349182128907	789.9500122070315	292.8250732421876	-153.7024230957032	885.2383422851565	-314.4900512695313	-159.2681884765625	888.7421875000002	-32.13731384277344	-330.7045593261719	886.1441650390627	-172.8066101074219	-246.4284362792969	619.8557739257814	-383.1888732910157	-235.6179351806641	439.0128479003907	-301.7325439453126	-273.8612670898438	199.9463806152344	-332.0358886718751	-256.7664489746094	67.2091751098633	-270.3735961914063	-314.7964477539063	52.87172698974611	-229.0546569824219	-148.3436126708985	48.99642562866212	-244.0357513427735	-220.2488098144532	599.5515136718751	12.73569488525391	-226.0125274658204	446.0156860351564	-51.38148498535158	-246.8644256591797	189.8700103759766	-27.81130409240723	-269.1510314941407	67.92774963378908	-85.19502258300783	-317.0358276367188	59.13464736938478	-142.7115936279297	-155.0953826904297	47.69122314453126	-95.54566955566408	
2	0.01	-130.6094665527344	1571.959106445313	-205.5016174316407	-160.3584899902344	1540.923461914063	-87.78333282470705	-269.7589111328126	1481.11865234375	-247.5633392333985	-298.1241149902344	1456.033935546875	-120.1474151611328	-316.3497619628907	1368.985717773438	-175.0718536376953	-369.1929931640626	1144.248779296875	-182.7498626708985	-164.5783386230469	1277.2783203125	-184.1356506347657	-97.4084167480469	1124.148681640625	-180.0741271972657	-239.9380035400391	1315.169067382813	-351.5877685546876	-158.4160461425782	1089.672485351563	-508.6003417968751	-49.368465423584	878.0651855468752	-564.6412963867189	-48.43864059448244	912.080017089844	-622.5416259765626	-19.82323455810547	808.8630981445315	-616.8958740234376	-230.7665557861329	1308.856323242188	-8.016195297241213	-201.8252105712891	1092.62109375	176.6063842773438	-158.5222778320313	847.9935302734377	240.0827178955079	-157.7097473144532	897.029968261719	304.1222839355469	-129.0250091552735	789.919860839844	292.7040710449219	-153.7188262939453	885.2220458984377	-314.5069580078126	-159.1908721923828	888.807067871094	-32.17262268066407	-330.6583251953126	886.201354980469	-172.7521667480469	-246.5305480957032	619.7552490234376	-383.0906066894532	-235.5725860595704	438.9952392578126	-301.6592102050782	-273.8529663085938	199.9364318847657	-332.0032958984376	-256.8469238281251	67.19200897216798	-270.2814331054688	-314.8040771484376	52.87266921997072	-229.0606689453126	-148.3191528320313	49.02883911132814	-244.1060485839844	-220.2488098144532	599.5515136718751	12.73569488525391	-226.0252532958985	446.0485229492189	-51.37026596069337	-246.9002838134766	189.8691711425782	-27.76317977905274	-269.0279235839844	67.86302185058595	-85.12559509277345	-317.0358276367188	59.13464736938478	-142.7115936279297	-155.0561676025391	47.69128417968751	-95.4850311279297	
3	0.02	-130.4587707519532	1571.9248046875	-205.6766967773438	-160.2214660644532	1540.997436523438	-87.88053131103517	-269.6912536621094	1481.119262695313	-247.6107330322266	-298.0309448242188	1456.110961914063	-120.2066726684571	-316.2479858398438	1369.01318359375	-175.0931091308594	-369.2418518066407	1144.279052734375	-182.8040771484375	-164.5510711669922	1277.426879882813	-184.0725555419922	-97.40833282470706	1124.164306640625	-180.0749053955078	-239.8777160644532	1315.205932617188	-351.6996154785157	-158.3464050292969	1089.634643554688	-508.550018310547	-49.34267425537111	877.976013183594	-564.5797729492189	-48.38619995117189	912.007995605469	-622.5363769531251	-19.87551879882813	808.7473754882815	-616.8808593750001	-230.727523803711	1308.864135742188	-8.047710418701174	-201.8983917236329	1092.533447265625	176.5930633544922	-158.5682525634766	848.0268554687502	239.8802337646485	-157.6299591064453	896.9055786132815	303.9574584960938	-128.8700714111328	789.7889404296877	292.5270080566407	-153.6462554931641	885.235534667969	-314.5322265625001	-159.1138763427735	888.7685546875002	-32.29546356201173	-330.6683959960938	886.1848754882815	-172.715087890625	-246.4636535644532	619.7971801757814	-383.2176208496094	-235.6417999267579	439.0208129882814	-301.7125244140626	-273.7718200683594	199.8997650146485	-331.9555969238282	-256.8642272949219	67.2077102661133	-270.2698364257813	-314.8213806152344	52.91458892822267	-229.0582733154297	-148.3114013671875	49.06540298461915	-244.0661773681641	-220.2311553955079	599.6490478515626	12.721097946167	-226.0306701660157	446.0522460937501	-51.36711502075197	-246.8617858886719	189.8766021728516	-27.78240203857423	-269.0249328613282	67.86812591552736	-85.11506652832033	-317.0299377441407	59.15057373046876	-142.6859130859375	-155.0515747070313	47.68999862670899	-95.49305725097658	
4	0.03	-130.4525451660157	1571.90625	-205.8799285888672	-160.2127838134766	1541.036865234375	-87.89790344238283	-269.6663208007813	1481.126098632813	-247.6389160156251	-298.0080261230469	1456.105346679688	-120.2334594726563	-316.2634277343751	1368.993774414063	-175.1836547851563	-369.1842956542969	1144.267944335938	-182.758544921875	-164.5119018554688	1277.405029296875	-184.2426300048828	-97.32703399658206	1124.19384765625	-180.1619567871094	-239.7982330322266	1315.208984375	-351.6326904296876	-158.239486694336	1089.686767578125	-508.6134643554689	-49.25065994262697	877.986022949219	-564.4512939453126	-48.35657501220705	911.919616699219	-622.4785156250001	-19.76979637145996	808.8023681640627	-616.9611816406251	-230.6613922119141	1308.862426757813	-8.057631492614748	-201.9000854492188	1092.526733398438	176.5701751708985	-158.4331359863282	847.9243164062502	239.7610626220704	-157.2974090576172	896.7014770507815	303.6811523437501	-128.862533569336	789.6711425781252	292.3521118164063	-153.6965026855469	885.2695922851565	-314.5208435058594	-159.1569976806641	888.7977294921877	-32.20567703247071	-330.6672058105469	886.2131347656252	-172.6903991699219	-246.5430603027344	619.7431640625001	-383.1011352539063	-235.7170867919922	438.9961853027345	-301.7253112792969	-273.9155883789063	199.9865722656251	-331.9930725097657	-256.8377380371094	67.24488830566408	-270.3316650390626	-314.8256835937501	52.87416458129884	-229.054183959961	-148.3106384277344	49.01771545410158	-244.0811157226563	-220.1852569580079	599.5754394531251	12.69063949584961	-226.0281829833985	446.0500793457032	-51.36864852905275	-246.8665466308594	189.8912811279297	-27.79560279846192	-268.6955261230469	67.78955841064455	-85.38155364990236	-317.0517272949219	59.10059356689455	-142.6856231689453	-155.0514068603516	47.69834899902344	-95.49822235107423	
